<?xml version="1.0" encoding="UTF-8"?>
<svg xmlns="http://www.w3.org/2000/svg" viewBox="0 0 605.42 590.26">
  <defs>
    <style>
      .cls-1 {
        fill: #3a4439;
      }

      .cls-1, .cls-2, .cls-3, .cls-4, .cls-5, .cls-6 {
        stroke-miterlimit: 10;
      }

      .cls-1, .cls-2, .cls-4, .cls-5, .cls-6 {
        stroke: #000;
      }

      .cls-1, .cls-2, .cls-5 {
        stroke-width: 10px;
      }

      .cls-2 {
        fill: #2e3a17;
      }

      .cls-3 {
        stroke: #995642;
        stroke-width: 2.06px;
      }

      .cls-3, .cls-7 {
        fill: #995642;
      }

      .cls-4 {
        stroke-width: 13px;
      }

      .cls-4, .cls-8 {
        fill: #6d332d;
      }

      .cls-5 {
        fill: #75a833;
      }

      .cls-6 {
        fill: #ffce00;
        stroke-width: 5.35px;
      }

      .cls-9 {
        fill: #a0694a;
      }
    </style>
  </defs>
  <g id="Laag_1" data-name="Laag 1">
    <g>
      <path class="cls-8" d="M103.54,330.55s-.1.04-.11.05c0,0,0,0,0,0-13.22,5.29-23.15,8.74-25.28,9.51-27.32,9.78-47.1,23.1-47.1,23.1-16.67,11.23-20.05,17.88-21.15,20.28-4.68,10.19-5.67,25.16.48,28.88,6.21,3.76,13.52-7.69,40.2-22.42,17.1-9.44,42.96-20.67,50.35-33.93,2.33-4.18,3.32-8.61,3.32-8.61,1.26-6.65.24-12.88-.71-16.86Z"/>
      <path d="M100.51,325.37c3.84-1.64-1.89.72-2.2.84-1.64.65-3.28,1.28-4.93,1.92-2.78,1.07-5.56,2.11-8.35,3.14-3.99,1.47-8.02,2.85-12.01,4.35-11.81,4.45-23.3,9.79-34.31,15.97-12.14,6.81-26.67,15.17-33.45,27.74-4.39,8.15-6.52,19.03-4.51,28.14,1.68,7.6,8.11,13.54,16.1,10.94,7.19-2.34,13.37-8.44,19.49-12.63,10.83-7.42,22.42-13.36,34-19.48,11.04-5.84,23.28-12.04,31.62-21.59,8.83-10.12,10.25-23.01,7.36-35.75-1.71-7.53-13.28-4.34-11.57,3.19,2.07,9.11,1.24,18.39-5.48,25.38-7.01,7.29-16.45,12.23-25.27,16.96-9.7,5.21-19.6,10.03-28.96,15.86-7.29,4.54-13.99,9.87-21.17,14.56-.99.65-1.99,1.31-3.06,1.83-1.33.64.27-.58-.66.27-.83.76-.26-.31.18.07-.18-.16.06.64,0,.04-.12-1.1-.96-2.36-1.14-3.58-.94-6.55.9-14.7,4.68-20.19,6.57-9.53,19.09-16.55,29.43-22.25,19.31-10.65,40.1-16.75,60.26-25.36,7.08-3.02.97-13.36-6.06-10.36Z"/>
    </g>
    <g>
      <path class="cls-8" d="M348.57,480.93c17.08,2.66,37.98,8.9,40.73,25.97,1.2,7.39-1.34,16.1,3.63,21.7,9.05,10.2,30.9-2.77,37.78,9-2.31,10.91-15.5,14.94-26.47,16.94-10.69,1.95-21.38,3.9-32.07,5.85-6.65,1.21-14.11,2.27-19.68-1.58-5.35-3.7-7.16-11.05-6.07-17.46s4.53-12.15,7.91-17.71c-8.05-11.29-16.1-22.59-24.16-33.88"/>
      <path d="M346.98,486.71c9.63,1.54,19.86,3.66,28.08,9.2,3.65,2.46,6.72,5.85,7.93,10.15,1.45,5.12.35,10.7,1.04,15.94,1.39,10.62,9.3,16.23,19.54,16.79,4.35.23,8.69-.38,13.04-.5,2.91-.08,7.11-.46,8.93,2.33-.2-1.54-.4-3.08-.6-4.62-1.81,7.05-9.45,9.67-15.8,11.34-9.52,2.5-19.44,3.78-29.12,5.55-6.91,1.26-20.36,6.13-25.71-.58-6.15-7.73,1.13-18.88,5.21-25.63,1.03-1.7,1.2-4.37,0-6.06-8.05-11.29-16.1-22.59-24.16-33.88-4.45-6.24-14.86-.25-10.36,6.06,8.05,11.29,16.1,22.59,24.16,33.88v-6.06c-5.39,8.9-10.54,18.62-8.54,29.36,1.88,10.1,9.64,16.65,19.76,17.44,10.83.85,22.63-2.92,33.2-4.85,9.6-1.75,19.48-2.96,28.42-7.11,6.45-2.99,15.72-10.44,14.61-18.65-1.06-7.84-11.36-10.42-17.8-10.53-5.91-.1-14.19,2.43-19.68-.4-3.32-1.71-3.39-5.58-3.45-8.89-.08-4.72.18-9.5-1.11-14.1-5.27-18.81-27.43-25.02-44.39-27.74-7.55-1.21-10.81,10.35-3.19,11.57h0Z"/>
    </g>
    <g>
      <path class="cls-8" d="M413.87,295.78s.11.02.12.02c0,0,0,0,0,0,14.06,2.23,24.51,3.4,26.76,3.68,28.81,3.49,51.04,12.11,51.04,12.11,18.74,7.26,23.51,13,25.12,15.1,6.82,8.9,11.09,23.28,5.92,28.27-5.22,5.04-14.89-4.51-44.17-12.96-18.76-5.42-46.47-10.65-56.61-21.95-3.19-3.56-5.15-7.66-5.15-7.66-2.7-6.2-3.09-12.51-3.04-16.6Z"/>
      <path d="M412.27,301.57c19.4,3.54,38.94,4.7,58.11,9.68,12.85,3.34,27.34,7.36,38.05,15.5,4.58,3.48,7.63,8.94,9.38,14.44,1.11,3.48.99,6.12.77,9.53.03-.42.62-.39,1.12-.38-.35-.01-1.64-.25-.4.1-.57-.16-1.16-.22-1.73-.39-7.02-2.08-13.64-5.57-20.47-8.19-10.39-3.99-21.08-6.84-31.82-9.69s-22.36-5.61-32.22-11.21c-9.56-5.44-13.2-14.46-13.2-25.18,0-7.72-12-7.73-12,0,0,11.4,3.3,23,12.2,30.69,8.49,7.32,19.88,10.95,30.45,14.08,11.71,3.46,23.67,6.05,35.25,9.95,9.28,3.12,18.04,7.74,27.34,10.73,6.46,2.08,13.14,1.09,16.41-5.52,4.75-9.58-1.01-22.95-6.59-30.91-7.99-11.38-22.53-16.81-35.28-21-12.36-4.07-25.1-7.09-37.95-9.08-11.38-1.77-22.9-2.65-34.24-4.72-7.55-1.38-10.79,10.18-3.19,11.57Z"/>
    </g>
    <g>
      <path class="cls-8" d="M194.18,500.08c-16.06,6.38-35.06,17.09-33.98,34.34.47,7.47,4.87,15.4,1.26,21.97-6.56,11.95-30.75,4.14-34.85,17.14,4.67,10.13,18.42,11.14,29.56,10.67,10.86-.46,21.72-.93,32.57-1.39,6.76-.29,14.27-.91,18.84-5.89,4.4-4.79,4.54-12.36,2.06-18.37-2.48-6.02-7.11-10.85-11.63-15.52,5.35-12.8,10.71-25.59,16.06-38.39"/>
      <path d="M192.58,494.29c-15.18,6.1-34.5,15.55-37.89,33.42-.84,4.44-.45,8.75.45,13.14.8,3.93,3.47,10.03.42,13.55-3.62,4.17-12.2,3.96-17.17,4.88-6.51,1.2-13.21,3.67-16.44,9.89-4.47,8.62,5.83,16.08,12.98,18.66,8.6,3.1,18.03,2.48,26.99,2.1,11.32-.48,22.95-.25,34.19-1.76,11.15-1.51,20.21-8.11,21.09-20,.88-11.95-7.18-21.37-14.94-29.41l1.54,5.84c5.35-12.8,10.71-25.59,16.06-38.39,1.26-3.01-1.36-6.57-4.19-7.38-3.45-.99-6.14,1.22-7.38,4.19-5.35,12.8-10.71,25.59-16.06,38.39-.81,1.93.2,4.44,1.54,5.84,5.45,5.65,13.98,13.9,10.99,22.72s-16.71,6.86-23.68,7.16c-10.03.43-20.15,1.29-30.2,1.15-7-.1-15.55-.86-19.1-7.78l.6,4.62c1.91-5.24,14.2-4.92,18.6-5.86,8.76-1.86,16.58-6.88,17.69-16.47,1.25-10.8-6.2-20.42,1.29-30.28,6.15-8.1,16.61-12.95,25.8-16.64,7.08-2.85,3.99-14.46-3.19-11.57h0Z"/>
    </g>
    <path class="cls-4" d="M57.51,167.29s-.04.04-.04.04c-1.81,2.05-1.78,4.92-1.75,6.1.4,16.84,3.66,23.89,4.62,30.11.71,4.62,5.03,7.8,9.65,7.09l6.39-.98c4.76-.73,9.11,2.58,9.68,7.35,1.64,13.73,3.88,32.52,6.5,54.65,19.26,162.67,21.92,191.9,30.65,206.71,1.53,2.59,2.56,3.77,4.07,5.69,53.12,67.34,206.23,46.36,277.26-26.75,3.53-3.63,6.17-6.69,7.39-8.12-8.56-7.59-17.13-15.19-25.69-22.78,12.44.7,24.88,1.39,37.32,2.09-8.55-10.2-17.1-20.4-25.66-30.6,12.89,1.86,25.78,3.72,38.68,5.58-6.25-9.46-12.49-18.92-18.74-28.37,9.67-.39,19.34-.77,29.01-1.16-2.87-6.9-7.06-16.89-12.25-28.96-3.7-8.6-6.11-14.09-6.67-15.38-17.99-41.56-20.38-114.38-25.45-140.6-.95-4.89-1.89-9.78-2.84-14.67-.91-4.72,2.28-9.25,7.03-9.98l24.16-3.7c.51-.08.85-.58.73-1.08-2.24-13.12-4.48-26.23-6.73-39.35-.68-3.96-4.33-6.71-8.32-6.25-49.84,5.66-355.44,49.35-359.01,53.32Z"/>
    <path class="cls-9" d="M160.09,503.15c7.15,3.96,17.6,8.95,30.85,12.54,24.99,6.77,44.82,4.46,68.28,1.49,47.07-5.96,79.38-22.02,87.82-26.38,13.99-7.22,24.98-14.6,32.67-20.23-33.4,16.69-87.49,37.63-155.6,38.15-23.84.18-45.37-2.16-64.04-5.57Z"/>
    <path class="cls-9" d="M428.2,158.48c-3.03.52-6.15.99-9.38,1.4-7.5.96-14.63,1.5-21.3,1.73-64.67,7.29-130.99,15.88-198.86,25.96-41.6,6.18-82.47,12.71-122.59,19.56-3.14.5-6.29,1-9.43,1.49-1.94-12.99-3.89-25.98-5.83-38.97,120.11-17.98,240.22-35.95,360.33-53.93,2.35,14.25,4.71,28.5,7.06,42.75Z"/>
    <path class="cls-9" d="M425.71,538.05c-1.49-.36-4.18-.95-7.56-1.35-29.41-3.46-48.35,15.04-56.8,8.29-2.17-1.73-4.53-5.83-2.4-17.31-3.61,3.36-5.6,6.74-6.68,8.98-1.57,3.26-5.29,10.97-1.71,17.02,1.42,2.39,3.43,3.61,4.28,4.11,5.51,3.24,12,1.58,15.62.71,22.9-5.49,22.61-.88,34.88-6.38,4.94-2.21,12.56-6.35,20.38-14.09Z"/>
    <path class="cls-9" d="M131.06,572.84c1.37-.68,3.86-1.85,7.08-2.99,27.92-9.89,50.48,3.97,57.23-4.48,1.73-2.17,3.13-6.69-1.49-17.41,4.27,2.47,6.95,5.33,8.5,7.28,2.25,2.83,7.58,9.53,5.43,16.22-.85,2.65-2.55,4.28-3.27,4.96-4.66,4.38-11.35,4.19-15.07,4.15-23.54-.29-22.25,4.14-35.42,1.5-5.31-1.07-13.65-3.42-22.99-9.23Z"/>
    <g>
      <g>
        <g>
          <path class="cls-7" d="M254.19,271.25c-.04-23.68,8.48-48.15,26.62-64.42,18.14-16.27,46.57-22.63,68.66-12.18,19.69,9.31,31.24,29.58,36.77,49.97,7.64,28.17,5.96,58.33-2.18,86.52-8.13,28.19-22.54,54.52-39.92,78.65"/>
          <path class="cls-7" d="M257.27,271.25c0-23.11,8.32-46.83,25.99-62.49,16.23-14.37,40.74-20.45,61.28-12.86,21,7.76,33.28,29.21,38.84,49.98,7.23,27.03,5.66,55.82-1.79,82.63-7.14,25.69-19.55,49.63-34.47,71.63-1.84,2.72-3.73,5.41-5.65,8.08-.97,1.35-.24,3.44,1.11,4.22,1.55.91,3.24.25,4.22-1.11,16.18-22.49,29.89-47.01,38.42-73.46,8.89-27.59,11.81-57.42,5.92-85.94-4.78-23.18-16.25-47.44-38.09-58.93-21.21-11.17-48.06-7.25-67.38,6.09-20.7,14.29-31.99,38.62-34.19,63.2-.27,2.98-.39,5.96-.39,8.95,0,3.97,6.17,3.98,6.17,0h0Z"/>
        </g>
        <g>
          <path class="cls-7" d="M251.29,271.58c-5.2-23.11-18.92-45.08-40.21-56.93-21.29-11.85-50.43-11.76-69.66,3.31-17.14,13.43-23.92,35.76-24.8,56.86-1.54,37.05,11.42,65.33,21.27,83.9,16.76,31.61,39.04,53.65,57.22,68.05"/>
          <path class="cls-7" d="M254.26,270.76c-2.86-12.6-8.11-24.8-15.69-35.29-7.63-10.56-17.59-19.63-29.4-25.28-11.72-5.61-25.05-8.07-38-6.78s-25.58,6.24-35.28,15.23-15.7,20.92-19.02,33.43c-3.59,13.52-4.13,27.82-2.88,41.7s4.2,26.45,8.79,39.03c3.79,10.39,8.54,20.42,13.86,30.11,6.98,12.71,15.32,24.65,24.72,35.68,7.82,9.17,16.4,17.68,25.59,25.47,1.97,1.67,3.96,3.3,5.98,4.9,1.3,1.03,3.09,1.27,4.36,0,1.07-1.07,1.31-3.32,0-4.36-19.19-15.23-36.01-33.44-49.08-54.19-6.1-9.7-11.47-19.94-16.01-30.46-.9-2.09-2.05-4.94-2.99-7.46-1.01-2.7-1.95-5.42-2.82-8.17-1.95-6.18-3.52-12.48-4.66-18.86-2.36-13.17-2.98-27.29-1.19-40.34,1.68-12.29,5.56-24.29,12.84-34.38,6.98-9.68,17.18-16.44,28.69-19.47s24.24-2.54,35.84,1.09c23.56,7.38,40.56,28.34,48.01,51.33.93,2.87,1.72,5.79,2.39,8.73.37,1.63,2.24,2.58,3.79,2.15,1.67-.46,2.52-2.16,2.15-3.79h0Z"/>
        </g>
        <g>
          <path class="cls-7" d="M195.11,426.77c14.08,8.62,29.87,19.54,46.18,33.23s29.67,27.25,40.43,39.49c-.53-4.32.28-8.59,1.78-12.72,1.84-5.05,4.48-9.64,6.01-11.92,4.19-6.23,25.01-31.53,54.64-65.06"/>
          <path class="cls-7" d="M193.55,429.43c25.54,15.66,49.2,34.28,70.34,55.52,5.39,5.41,10.6,10.99,15.65,16.72,1.67,1.9,5.56.48,5.27-2.18-.91-8.23,2.96-16.63,7.52-23.29.75-1.1,1.56-2.16,2.36-3.22.21-.27.94-1.22.36-.48.31-.4.62-.8.94-1.21.67-.85,1.34-1.7,2.01-2.54,8.57-10.75,17.49-21.23,26.45-31.66,7.23-8.42,14.53-16.79,21.88-25.11,1.1-1.25,1.23-3.13,0-4.36-1.12-1.12-3.26-1.25-4.36,0-12.2,13.82-24.29,27.74-36.11,41.88-6.32,7.56-12.88,15.09-18.56,23.16-2.1,2.98-3.82,6.27-5.27,9.6-2.37,5.44-4.06,11.25-3.39,17.24l5.27-2.18c-9.46-10.74-19.53-20.94-30.15-30.54-11.87-10.72-24.43-20.7-37.54-29.86-6.38-4.46-12.9-8.73-19.54-12.8-3.39-2.08-6.5,3.25-3.11,5.33h0Z"/>
        </g>
      </g>
      <path class="cls-3" d="M341.1,410.13l-140.02,15.68c-3.93-1.24-9.66-3.53-15.56-7.89-6.55-4.84-10.53-10.18-12.77-13.72l-10.96-97.87c-1.51-13.52,8.71-25.76,22.84-27.34l140.02-15.68c14.13-1.58,26.81,8.09,28.32,21.61l10.96,97.87c-3.65,5.74-8.27,12.07-14.11,18.52-2.95,3.26-5.88,6.19-8.73,8.82Z"/>
    </g>
    <rect x="201.17" y="378.32" width="128.7" height="15.06" transform="translate(-41.31 31.96) rotate(-6.39)"/>
    <g>
      <path d="M169.23,314.46c11.12-17.98,21.63-36.33,31.5-55.02,2.77-5.24,5.48-10.5,8.15-15.79,1.41-2.8.83-6.63-2.15-8.21-2.73-1.44-6.7-.84-8.21,2.15-9.52,18.87-19.67,37.43-30.45,55.61-3.02,5.1-6.09,10.16-9.21,15.2-1.65,2.67-.66,6.72,2.15,8.21,2.94,1.55,6.44.7,8.21-2.15h0Z"/>
      <path d="M141.68,254.65c1.44.57,2.92,1.11,4.32,1.76-1.48-.69-.16-.07.13.06.33.14.65.28.97.42.84.37,1.68.74,2.52,1.11,2.84,1.27,5.65,2.6,8.44,3.99,5.7,2.83,11.28,5.91,16.72,9.2s10.76,6.81,15.91,10.54c1.15.83,2.28,1.67,3.41,2.52.68.51,1.37,1,2.03,1.54-1.07-.88-.45-.35-.21-.16.45.35.89.7,1.34,1.05,2.44,1.93,4.85,3.91,7.21,5.93,5.48,4.7,10.73,9.65,15.74,14.84,2.19,2.26,6.32,2.36,8.49,0s2.33-6.07,0-8.49c-18.18-18.8-39.56-34.63-62.88-46.48-6.83-3.47-13.84-6.58-20.96-9.4-1.36-.54-3.42-.1-4.62.6s-2.43,2.16-2.76,3.59c-.79,3.46,1.06,6.14,4.19,7.38h0Z"/>
    </g>
    <g>
      <path d="M308.03,295.63c11.12-17.98,21.63-36.33,31.5-55.02,2.77-5.24,5.48-10.5,8.15-15.79,1.41-2.8.83-6.63-2.15-8.21-2.73-1.44-6.7-.84-8.21,2.15-9.52,18.87-19.67,37.43-30.45,55.61-3.02,5.1-6.09,10.16-9.21,15.2-1.65,2.67-.66,6.72,2.15,8.21,2.94,1.55,6.44.7,8.21-2.15h0Z"/>
      <path d="M280.48,235.81c1.44.57,2.92,1.11,4.32,1.76-1.48-.69-.16-.07.13.06.33.14.65.28.97.42.84.37,1.68.74,2.52,1.11,2.84,1.27,5.65,2.6,8.44,3.99,5.7,2.83,11.28,5.91,16.72,9.2s10.76,6.81,15.91,10.54c1.15.83,2.28,1.67,3.41,2.52.68.51,1.37,1,2.03,1.54-1.07-.88-.45-.35-.21-.16.45.35.89.7,1.34,1.05,2.44,1.93,4.85,3.91,7.21,5.93,5.48,4.7,10.73,9.65,15.74,14.84,2.19,2.26,6.32,2.36,8.49,0s2.33-6.07,0-8.49c-18.18-18.8-39.56-34.63-62.88-46.48-6.83-3.47-13.84-6.58-20.96-9.4-1.36-.54-3.42-.1-4.62.6s-2.43,2.16-2.76,3.59c-.79,3.46,1.06,6.14,4.19,7.38h0Z"/>
    </g>
  </g>
  <g id="Laag_2" data-name="Laag 2">
    <polygon class="cls-6" points="562.75 3.31 601.32 18.06 524.9 131.46 560.73 145.17 436.17 299.67 509.15 164.43 477.12 149.1 562.75 3.31"/>
    <rect class="cls-5" x="207.85" y="57.55" width="35.29" height="76.1"/>
    <path class="cls-2" d="M232,73.05c-2.43-28.25-17.07-52.28-37.66-58.71-32.42-10.13-64.94,27.95-75.81,55.08-7.77,19.39-8.63,43.55-2.96,45.61,4.06,1.47,9.24-9.24,17.77-16.58,11.97-10.3,35.41-18.18,86.41-2.85l12.25-22.54Z"/>
    <path class="cls-1" d="M216.55,84.54c-.09-30.03,17.19-55.27,40.58-61.91,27.83-7.9,51.92,14.07,59.23,20.73,16.74,15.26,29.01,39.23,23.1,45.61-4.84,5.22-16.38-7.21-39.68-8.88-37.92-2.72-74.15,25.4-77.6,27h0l-5.62-22.54Z"/>
    <path class="cls-1" d="M242.26,128.87h-25.51c-11.72-13.25-9.61-31.28,0-38.39,6.57-4.87,16.72-4.67,25.51,0v38.39Z"/>
  </g>
</svg>