<?xml version="1.0" encoding="UTF-8"?>
<svg xmlns="http://www.w3.org/2000/svg" xmlns:xlink="http://www.w3.org/1999/xlink" viewBox="0 0 536.97 763.29">
  <defs>
    <style>
      .cls-1 {
        stroke: #c17052;
        stroke-width: 2.06px;
      }

      .cls-1, .cls-2, .cls-3, .cls-4, .cls-5, .cls-6 {
        stroke-miterlimit: 10;
      }

      .cls-1, .cls-7 {
        fill: #c17052;
      }

      .cls-2 {
        fill: url(#Naamloos_verloop_54-2);
      }

      .cls-2, .cls-3, .cls-4, .cls-5, .cls-6 {
        stroke: #000;
      }

      .cls-2, .cls-3, .cls-5 {
        stroke-width: 5px;
      }

      .cls-3 {
        fill: url(#Naamloos_verloop_54);
      }

      .cls-8 {
        fill: #fffdfd;
      }

      .cls-4 {
        stroke-width: 4.2px;
      }

      .cls-4, .cls-5 {
        fill: #75a833;
      }

      .cls-6 {
        stroke-width: 13px;
      }

      .cls-6, .cls-9 {
        fill: #ac5346;
      }

      .cls-10 {
        fill: #ffecff;
      }

      .cls-11 {
        fill: #db9364;
      }
    </style>
    <linearGradient id="Naamloos_verloop_54" data-name="Naamloos verloop 54" x1="203.08" y1="159.99" x2="230.11" y2="81.25" gradientUnits="userSpaceOnUse">
      <stop offset="0" stop-color="#ffecff"/>
      <stop offset=".3" stop-color="#fdcde2"/>
      <stop offset=".56" stop-color="#fdcae0"/>
      <stop offset=".86" stop-color="#fdb8dd"/>
    </linearGradient>
    <linearGradient id="Naamloos_verloop_54-2" data-name="Naamloos verloop 54" x1="393.42" y1="191.5" x2="340.71" y2="103.4" xlink:href="#Naamloos_verloop_54"/>
  </defs>
  <g id="Laag_1" data-name="Laag 1">
    <g>
      <path class="cls-9" d="M109.09,494.45s-.1.03-.12.04c0,0,0,0,0,0-13.72,3.79-23.98,6.11-26.18,6.63-28.24,6.68-49.38,17.72-49.38,17.72-17.81,9.3-21.92,15.54-23.28,17.8-5.78,9.6-8.43,24.37-2.74,28.76,5.75,4.42,14.3-6.14,42.45-17.8,18.04-7.48,44.99-15.76,53.81-28.12,2.78-3.89,4.26-8.19,4.26-8.19,1.99-6.46,1.68-12.78,1.18-16.84Z"/>
      <path d="M107.97,490.38c-9.26,2.79-18.75,4.8-28.14,7.11-12.36,3.03-24.44,7.13-36.17,12.05-12.81,5.38-28.07,11.87-36.26,23.56-5.03,7.18-8.23,17.42-7.22,26.19.81,7,5.74,12.76,13.16,10.96,7.18-1.74,13.86-6.94,20.29-10.36,11.59-6.16,23.76-10.72,35.93-15.54,11.31-4.48,23.31-9.11,32.63-17.16s12.47-20.61,11.1-32.74c-.6-5.34-9.05-5.4-8.44,0,1.11,9.85-.49,19.54-8.2,26.39-7.43,6.6-17.44,10.58-26.54,14.25-9.78,3.95-19.73,7.47-29.33,11.86-8.36,3.82-16.22,8.48-24.32,12.8-1.72.92-3.88,2.33-5.89,2.47-.08,0-.36.02-.49-.1-1.13-1.02-1.42-2.53-1.59-4-.78-7.03,2.47-16.31,6.76-21.46,7.86-9.45,21.05-15.01,32.24-19.65,20.38-8.46,41.71-12.18,62.71-18.49,5.19-1.56,2.98-9.71-2.24-8.14Z"/>
    </g>
    <g>
      <path class="cls-9" d="M336.41,675.26c16.67,4.55,36.75,13.08,37.59,30.34.37,7.48-3.12,15.85,1.19,21.97,7.85,11.14,31.02.69,36.54,13.15-3.51,10.58-17.07,13.12-28.19,13.89-10.84.75-21.68,1.5-32.53,2.25-6.75.47-14.28.68-19.38-3.76-4.91-4.27-5.88-11.77-4.09-18.03s5.86-11.57,9.83-16.72c-6.74-12.12-13.49-24.24-20.23-36.36"/>
      <path d="M334.81,681.05c9.44,2.62,19.79,5.93,27.08,12.81,3.22,3.04,5.64,6.78,6.08,11.28.57,5.72-1.41,11.38-.79,17.12,1.15,10.67,9.55,15.71,19.39,16.87,5.53.65,17-1.34,19.98,4.63-.2-1.54-.4-3.08-.6-4.62-2.53,6.68-11.77,8.3-17.94,9.08-10.33,1.3-20.87,1.54-31.25,2.26-6.75.47-19.71,3.3-23.21-4.74-3.77-8.66,4.14-18.01,9.01-24.35,1.28-1.67.95-4.36,0-6.06-6.74-12.12-13.49-24.24-20.23-36.36-3.76-6.75-14.12-.7-10.36,6.06,6.74,12.12,13.49,24.24,20.23,36.36v-6.06c-6.12,7.95-12.22,16.89-11.4,27.43.74,9.51,6.72,17.31,16.19,19.47,10.58,2.41,22.49.05,33.16-.68,9.74-.67,20.06-.6,29.47-3.54,7.47-2.33,15.96-7.44,17.9-15.68,1.78-7.59-8.06-12.73-14.03-13.8-6.6-1.18-14.36.26-20.61-2.35-3.33-1.39-3.93-4.16-3.83-7.57.15-5.07,1.35-9.98.76-15.07-2.39-20.36-24.58-29.28-41.79-34.05-7.45-2.07-10.63,9.51-3.19,11.57h0Z"/>
    </g>
    <g>
      <path class="cls-9" d="M421.36,494.45s.1.03.12.04c0,0,0,0,0,0,13.72,3.79,23.98,6.11,26.18,6.63,28.24,6.68,49.38,17.72,49.38,17.72,17.81,9.3,21.92,15.54,23.28,17.8,5.78,9.6,8.43,24.37,2.74,28.76-5.75,4.42-14.3-6.14-42.45-17.8-18.04-7.48-44.99-15.76-53.81-28.12-2.78-3.89-4.26-8.19-4.26-8.19-1.99-6.46-1.68-12.78-1.18-16.84Z"/>
      <path d="M420.24,498.52c18.89,5.68,38.18,9,56.67,16.09,12.38,4.75,26.12,10.43,35.89,19.6,4.38,4.11,6.91,9.63,8.36,15.71.77,3.23,2.01,9.11-.51,11.99-.52.6-1.39.3-3.18-.4-7.07-2.77-13.56-7.52-20.33-10.95-9.68-4.9-19.75-8.79-29.84-12.72-10.61-4.12-21.89-8.23-31.12-15.07-9.35-6.92-11.85-17.15-10.6-28.33.61-5.39-7.84-5.35-8.44,0-1.23,10.97.94,22.15,8.67,30.43,7.3,7.81,17.94,12.36,27.59,16.43,11.67,4.92,23.7,8.95,35.13,14.41,8.58,4.1,16.57,9.61,25.3,13.35,5.48,2.35,11.36,2.09,14.63-3.64,5.11-8.97.48-22.9-4.49-30.92-6.86-11.06-20.35-17.52-31.87-22.67-11.68-5.23-23.76-9.59-36.11-12.95-11.11-3.02-22.46-5.18-33.5-8.5-5.21-1.57-7.44,6.58-2.24,8.14Z"/>
    </g>
    <g>
      <path class="cls-9" d="M180.29,673.02c-16.67,4.55-36.75,13.08-37.59,30.34-.37,7.48,3.12,15.85-1.19,21.97-7.85,11.14-31.02.69-36.54,13.15,3.51,10.58,17.07,13.12,28.19,13.89,10.84.75,21.68,1.5,32.53,2.25,6.75.47,14.28.68,19.38-3.76,4.91-4.27,5.88-11.77,4.09-18.03-1.79-6.26-5.86-11.57-9.83-16.72,6.74-12.12,13.49-24.24,20.23-36.36"/>
      <path d="M178.7,667.23c-15.51,4.3-34.36,11.44-40.39,27.9-1.5,4.1-1.81,8.47-1.45,12.8.33,3.93,2.32,10.37-.2,13.95-3.25,4.62-12.82,3.36-17.61,3.71-6.85.5-14.29,1.95-18.3,8.16-4.97,7.68,3.5,16.15,10.1,19.5,8.38,4.26,17.9,4.82,27.1,5.45,11.36.78,23,2.41,34.38,2.13,10.74-.26,20.72-5.4,23.08-16.65,2.5-11.9-3.96-22.08-10.91-31.1v6.06c6.74-12.12,13.49-24.24,20.23-36.36,3.76-6.75-6.6-12.81-10.36-6.06-6.74,12.12-13.49,24.24-20.23,36.36-.95,1.7-1.28,4.39,0,6.06,4.85,6.3,12.39,15.16,9.19,23.78s-16.35,5.79-23.39,5.31c-10.21-.7-20.55-1.01-30.72-2.2-6.3-.74-15.89-2.3-18.48-9.14l-.6,4.62c2.99-5.98,14.45-3.97,19.98-4.63,9.85-1.17,18.21-6.18,19.39-16.87.62-5.6-1.23-11.08-.82-16.65.34-4.69,2.75-8.57,6.11-11.74,7.28-6.88,17.64-10.19,27.08-12.81,7.43-2.06,4.28-13.64-3.19-11.57h0Z"/>
    </g>
    <path class="cls-6" d="M86.9,320.15s-.04.03-.04.03c-2.1,1.75-2.51,4.6-2.66,5.77-2.16,16.71,0,24.17,0,30.46,0,4.68,3.79,8.47,8.47,8.47h6.47c4.81,0,8.62,3.93,8.46,8.74-.46,13.82-1.09,32.74-1.85,55-6.39,186.57-7.83,198.57,2.14,215.21,50.84,84.82,271.93,79.59,315.79,0,7-12.7,6.95-22.7,4.79-107.12-.84-32.82-2.13-82.01-3.86-142.83-.19-4.98-.39-9.96-.58-14.94-.19-4.8,3.66-8.8,8.46-8.8h24.44c.52,0,.93-.44.89-.96-.23-13.3-.46-26.61-.69-39.91-.07-4.02-3.26-7.29-7.28-7.44-50.12-1.95-358.81-5.07-362.95-1.68Z"/>
    <path class="cls-11" d="M148.15,674.04c19.95,10.55,58.65,27.61,110.13,29.1,59.03,1.71,103.4-17.96,123.79-28.62-35.14,11.29-90.71,23.77-157.73,16.31-29.42-3.28-55.03-9.73-76.19-16.79Z"/>
    <path class="cls-11" d="M453.2,366.7c-3.07.06-6.23.07-9.48,0-7.56-.16-14.69-.68-21.33-1.45-65.03-2.36-131.9-3.68-200.51-3.76-42.06-.05-83.44.37-124.13,1.2-3.18.03-6.37.05-9.55.08v-39.4h364.35c.22,14.44.44,28.89.66,43.33Z"/>
    <path class="cls-11" d="M406.71,740.62c-1.44-.52-4.04-1.41-7.37-2.18-28.84-6.72-49.72,9.57-57.37,1.92-1.96-1.96-3.86-6.3-.46-17.47-3.96,2.93-6.31,6.07-7.64,8.18-1.92,3.06-6.47,10.32-3.59,16.73,1.14,2.54,3.01,3.97,3.8,4.56,5.12,3.84,11.75,2.9,15.44,2.44,23.36-2.91,22.57,1.64,35.37-2.45,5.16-1.65,13.19-4.91,21.82-11.73Z"/>
    <path class="cls-11" d="M109.47,738.3c1.44-.52,4.04-1.41,7.37-2.18,28.84-6.72,49.72,9.57,57.37,1.92,1.96-1.96,3.86-6.3.46-17.47,3.96,2.93,6.31,6.07,7.64,8.18,1.92,3.06,6.47,10.32,3.59,16.73-1.14,2.54-3.01,3.97-3.8,4.56-5.12,3.84-11.75,2.9-15.44,2.44-23.36-2.91-22.57,1.64-35.37-2.45-5.16-1.65-13.19-4.91-21.82-11.73Z"/>
    <g>
      <g>
        <g>
          <path class="cls-7" d="M265.41,452.3c2.6-23.54,13.79-46.91,33.62-61.06,19.84-14.15,48.8-17.3,69.59-4.46,18.53,11.44,27.76,32.88,30.98,53.75,4.46,28.85-.57,58.63-11.79,85.74-11.22,27.11-28.47,51.68-48.42,73.72"/>
          <path class="cls-7" d="M268.49,452.3c2.51-22.35,13.32-45.01,32.1-58.39,18.02-12.85,43.73-16.61,63.53-6.15,20.4,10.78,29.91,33.93,32.84,55.86,3.64,27.3-1.31,55.18-11.6,80.56s-24.73,46.47-41.73,66.34c-2.11,2.46-4.25,4.89-6.42,7.29-1.12,1.24-1.22,3.14,0,4.36,1.13,1.13,3.24,1.24,4.36,0,18.4-20.35,34.73-42.9,46.13-67.95,11.87-26.08,18.45-54.96,16.16-83.69-1.93-24.17-10.21-49.89-30.81-64.51-20-14.2-47.84-13-68.83-1.64-21.8,11.81-35.75,34.85-40.49,58.73-.6,3.04-1.06,6.11-1.4,9.2-.19,1.66,1.55,3.08,3.08,3.08,1.82,0,2.9-1.42,3.08-3.08h0Z"/>
        </g>
        <g>
          <path class="cls-7" d="M262.48,452.3c-2.6-23.54-13.79-46.91-33.62-61.06-19.84-14.15-48.8-17.3-69.59-4.46-18.53,11.44-27.76,32.88-30.98,53.75-5.66,36.65,4.08,66.2,11.79,85.74,13.14,33.27,32.83,57.66,49.29,74"/>
          <path class="cls-7" d="M265.57,452.3c-2.93-26.08-15.81-51.9-38.61-66.02-21.74-13.46-52.31-15.22-73.33.63s-29.36,45.51-30.06,71.79c-.66,25.11,5.61,49.63,15.28,72.65,10.24,24.36,25.01,46.59,43.15,65.78,1.71,1.8,3.44,3.58,5.2,5.33,2.82,2.8,7.18-1.56,4.36-4.36-17.1-16.99-31.4-36.43-42.06-58.13-10.42-21.19-17.99-44.61-19.51-68.19-.88-13.72.02-27.76,3.47-41.1,2.97-11.49,7.97-22.72,15.92-31.56s18.71-14.73,30.72-16.66,24.15-.02,34.99,4.59c23.18,9.87,37.85,32.57,42.91,56.56.62,2.93,1.1,5.86,1.41,8.69.19,1.66,1.28,3.08,3.08,3.08,1.52,0,3.27-1.42,3.08-3.08h0Z"/>
        </g>
        <g>
          <path class="cls-7" d="M189.38,600.27c13.03,10.14,27.51,22.74,42.19,38.16,14.68,15.42,26.45,30.39,35.78,43.75-.04-4.35,1.23-8.51,3.19-12.44,2.39-4.81,5.53-9.08,7.3-11.17,4.86-5.73,28.36-28.55,61.54-58.58"/>
          <path class="cls-7" d="M187.2,602.45c23.72,18.47,45.28,39.69,64.01,63.21,4.68,5.88,9.17,11.92,13.48,18.08,1.68,2.41,5.75,1.68,5.75-1.56,0-4.62,1.62-8.91,3.83-12.91,1.77-3.19,3.85-6.33,5.95-8.76s4.56-4.87,6.91-7.23c9.74-9.76,19.79-19.21,29.88-28.6,8.13-7.56,16.31-15.06,24.54-22.51,1.24-1.12,1.14-3.23,0-4.36-1.23-1.23-3.12-1.12-4.36,0-13.67,12.37-27.22,24.87-40.55,37.6-6.97,6.66-14.19,13.25-20.57,20.49s-11.8,16.56-11.81,26.28l5.75-1.56c-8.26-11.81-17.19-23.17-26.73-33.97-10.52-11.91-21.8-23.16-33.73-33.66-5.85-5.15-11.85-10.11-18-14.9-1.31-1.02-3.08-1.28-4.36,0-1.07,1.07-1.32,3.33,0,4.36h0Z"/>
        </g>
      </g>
      <path class="cls-1" d="M336.32,599.99h-140.89c-3.76-1.67-9.21-4.59-14.58-9.57-5.97-5.54-9.34-11.29-11.16-15.06v-98.48c0-13.6,11.53-24.63,25.74-24.63h140.89c14.22,0,25.74,11.03,25.74,24.63v98.48c-4.27,5.3-9.56,11.07-16.08,16.83-3.29,2.91-6.53,5.5-9.66,7.8Z"/>
    </g>
    <path d="M314.03,434.37c-18.08,13.56-18.08,45.29,0,58.86,11.68,8.77,29.35,8.77,41.04,0,18.08-13.56,18.08-45.29,0-58.86-11.68-8.77-29.35-8.77-41.04,0Z"/>
    <ellipse class="cls-8" cx="344.53" cy="466.12" rx="16.27" ry="13.02"/>
    <path d="M170.36,434.37c-18.08,13.56-18.08,45.29,0,58.86,11.68,8.77,29.35,8.77,41.04,0,18.08-13.56,18.08-45.29,0-58.86-11.68-8.77-29.35-8.77-41.04,0Z"/>
    <ellipse class="cls-8" cx="200.86" cy="466.12" rx="16.27" ry="13.02"/>
    <path d="M316.44,567.98c-13.65,30.43-103.75,30.43-117.4,0-2.9-6.47-2.06-13.66,0-20.15h117.4c2.06,6.48,2.9,13.68,0,20.15Z"/>
  </g>
  <g id="Laag_9" data-name="Laag 9">
    <path class="cls-5" d="M289.56,196.17s20.09-102.25,61.36-102.12l-.05,11.57s-17.2-16.01-61.31,90.55Z"/>
    <path class="cls-5" d="M230.2,105.62s17.2-16.01,61.31,90.55c0,0-20.09-102.25-61.36-102.12"/>
    <path class="cls-3" d="M216.54,102.38s-15.99,10.99-31.06,23.88c-12.12,10.37-23.63,21.98-25.74,30.09h15.38s-5.92,32.41,0,43.06c0,0,30.77-2.11,46.15-43.06,0,0-8.28,24.13,8.28,43.06,0,0,18.93-19.86,11.83-43.06,0,0-11.83-27.94-8.28-53.97s-16.57,0-16.57,0Z"/>
    <path class="cls-2" d="M363.54,102.38s15.99,10.99,31.06,23.88c12.12,10.37,23.63,21.98,25.74,30.09h-15.38s5.92,32.41,0,43.06c0,0-30.77-2.11-46.15-43.06,0,0,8.28,24.13-8.28,43.06,0,0-18.93-19.86-11.83-43.06,0,0,11.83-27.94,8.28-53.97-3.55-26.03,16.57,0,16.57,0Z"/>
    <path class="cls-5" d="M230,88.03c-.17-.03-2.83-.54-5.33,0-5.91,1.28-10.78,8.42-12.43,17.75l17.75,9.47c9.17-5.45,12.32-15.09,9.36-20.68-1.47-2.78-5.05-5.68-9.36-6.54Z"/>
    <path class="cls-5" d="M346.64,90.17c.12-.02,2.61-.5,5.33,0,9.29,1.7,14.99,13.63,15.68,15.1-7,4.04-14,8.08-21,12.11-9.17-5.45-12.32-15.09-9.36-20.68,1.47-2.78,5.05-5.68,9.36-6.54Z"/>
    <path class="cls-5" d="M348.05,116.17c-6.32,8.4-12.64,16.8-18.96,25.2,2.8-.49,6.13-1.37,9.63-2.94,9.09-4.07,14.17-10.51,16.57-14.13.49,1.79,2.63,8.77,9.66,12.77,2.37,1.35,4.66,2,6.45,2.32.28-2.14.47-4.49.5-7.02.07-5.6-.67-10.54-1.61-14.59,3.28.04,7.55-.11,12.44-.81,9.02-1.28,16.84-2.39,20.56-8,1.03-1.55,2.12-4.01,2.05-7.73-2.08.87-5.1,2.12-8.78,3.57-9.48,3.73-12.6,4.57-14.82,4.59-.11,0-.52-.01-1.15-.06-5.67-.41-10.01-2.34-12.96-4.08-6.53,3.63-13.06,7.27-19.6,10.9Z"/>
    <path class="cls-5" d="M231.42,119.81c6.32,8.4,12.64,16.8,18.96,25.2-2.8-.49-6.13-1.37-9.63-2.94-9.09-4.07-14.17-10.51-16.57-14.13-.49,1.79-2.63,8.77-9.66,12.77-2.37,1.35-4.66,2-6.45,2.32-.28-2.14-.47-4.49-.5-7.02-.07-5.6.67-10.54,1.61-14.59-3.28.04-7.55-.11-12.44-.81-9.02-1.28-16.84-2.39-20.56-8-1.03-1.55-2.12-4.01-2.05-7.73,2.08.87,5.1,2.12,8.78,3.57,11.19,4.41,13.53,4.78,15.97,4.53,2.13-.22,6.16-1.1,10.86-5.38l21.7,12.2Z"/>
    <g>
      <path class="cls-10" d="M204.62,207.42c-1.04,1.56-1.7,3.37-1.9,5.24-.13,1.18-.03,2.48.73,3.39,1.17,1.38,3.34,1.26,5.05.66.51-.18,1.03-.4,1.43-.77,1.08-.97,1.11-2.72.46-4.01s-1.82-2.24-2.95-3.13-2.31-1.83-2.98-3.11"/>
      <path d="M204.29,207.23c-1.77,2.71-3.86,9.48,1.09,10.22,1.65.25,4.08-.22,5.15-1.61,1.16-1.5.67-3.62-.39-5.02-1.54-2.03-4.12-3.05-5.36-5.33-.23-.42-.88-.05-.65.38.89,1.63,2.43,2.65,3.82,3.81s2.7,2.57,2.47,4.45-2.38,2.56-4.04,2.63c-.76.03-1.57-.09-2.2-.54-.76-.54-1.07-1.45-1.13-2.35-.13-2.18.7-4.45,1.88-6.25.27-.4-.38-.78-.65-.38h0Z"/>
    </g>
    <g>
      <path class="cls-10" d="M380.44,207.32c-1.04,1.56-1.7,3.37-1.9,5.24-.13,1.18-.03,2.48.73,3.39,1.17,1.38,3.34,1.26,5.05.66.51-.18,1.03-.4,1.43-.77,1.08-.97,1.11-2.72.46-4.01s-1.82-2.24-2.95-3.13-2.31-1.83-2.98-3.11"/>
      <path d="M380.11,207.14c-1.77,2.71-3.86,9.48,1.09,10.22,1.65.25,4.08-.22,5.15-1.61,1.16-1.5.67-3.62-.39-5.02-1.54-2.03-4.12-3.05-5.36-5.33-.23-.42-.88-.05-.65.38.89,1.63,2.43,2.65,3.82,3.81s2.7,2.57,2.47,4.45-2.38,2.56-4.04,2.63c-.76.03-1.57-.09-2.2-.54-.76-.54-1.07-1.45-1.13-2.35-.13-2.18.7-4.45,1.88-6.25.27-.4-.38-.78-.65-.38h0Z"/>
    </g>
    <path d="M370.47,182.1c3.75,8.69,6.6,17.75,8.58,27,.4,1.89,3.3,1.09,2.89-.8-2.04-9.52-5.03-18.78-8.89-27.71-.76-1.77-3.35-.24-2.59,1.51h0Z"/>
    <path d="M207.1,180.14c-2.08,9.12-3.42,18.4-3.99,27.74-.12,1.93,2.88,1.92,3,0,.56-9.08,1.86-18.08,3.88-26.94.43-1.88-2.46-2.68-2.89-.8h0Z"/>
    <path d="M223.59,318.91c30.87-.67,61.75-1.33,92.62-2l12.95-.28c3.56-.08,7.62-.59,10.81,1.35,1.65,1.01,3.16-1.59,1.51-2.59-2.85-1.73-6.18-1.88-9.43-1.82-3.87.07-7.74.17-11.61.25l-23.65.51c-15.6.34-31.2.67-46.81,1.01-8.8.19-17.59.38-26.39.57-1.93.04-1.93,3.04,0,3h0Z"/>
    <path d="M216.7,316.38c32.12-.15,64.24-.19,96.36-.11,8.99.02,17.97.05,26.96.09,1.93,0,1.93-2.99,0-3-32.12-.14-64.24-.17-96.36-.08-8.99.02-17.97.06-26.96.1-1.93,0-1.93,3.01,0,3h0Z"/>
  </g>
  <g id="Laag_10" data-name="Laag 10">
    <path class="cls-4" d="M276.42,313.89l16.22.66,4.64-114.39c1.92-2.32,4.88-5.64,8.9-9.16,15.65-13.72,31.77-16.91,31.24-18.91-.39-1.49-9.59-.65-17.51,1.07-12.39,2.68-21.87,7.52-28.03,11.29-3.56-3.12-9.24-7.32-17.09-10.22-14.93-5.52-29.6-3.35-29.65-2.46-.03.52,5,.38,10.54,2.17,7.51,2.43,16.91,8.71,25.37,25.57l-4.64,114.39Z"/>
  </g>
</svg>